<svg width="32" height="20" viewBox="0 0 32 20" fill="none" xmlns="http://www.w3.org/2000/svg">
<path fill-rule="evenodd" clip-rule="evenodd" d="M26.4004 1.94767L29.4172 1.94767C29.6023 1.94767 29.7524 2.09774 29.7524 2.28287L29.7524 5.29966C29.7524 5.48479 29.6023 5.63486 29.4172 5.63486C29.2321 5.63486 29.082 5.48479 29.082 5.29966L29.082 3.09211L18.0313 14.1428L17.5572 13.6688L28.608 2.61807L26.4004 2.61807C26.2153 2.61807 26.0652 2.46799 26.0652 2.28287C26.0652 2.09774 26.2153 1.94767 26.4004 1.94767Z" fill="#DBC08A"/>
<path fill-rule="evenodd" clip-rule="evenodd" d="M11.4591 8.39334L18.3483 13.5061L17.9487 14.0444L11.0595 8.93169L11.4591 8.39334Z" fill="#DBC08A"/>
<path fill-rule="evenodd" clip-rule="evenodd" d="M11.8589 8.74858L1.12199 19.4855L0.647949 19.0115L11.3849 8.27454L11.8589 8.74858Z" fill="#DBC08A"/>
</svg>
