<svg width="20" height="36" viewBox="0 0 20 36" fill="none" xmlns="http://www.w3.org/2000/svg">
<path fill-rule="evenodd" clip-rule="evenodd" d="M14.0759 1.18564H6.46336C3.42667 1.18564 0.964941 3.64737 0.964941 6.68406V29.2984C0.964941 32.335 3.42666 34.7968 6.46335 34.7968H14.0759C17.1126 34.7968 19.5743 32.335 19.5743 29.2984V6.68406C19.5743 3.64737 17.1126 1.18564 14.0759 1.18564ZM6.46336 0.956543C3.30014 0.956543 0.73584 3.52084 0.73584 6.68406V29.2984C0.73584 32.4616 3.30013 35.0259 6.46335 35.0259H14.0759C17.2391 35.0259 19.8034 32.4616 19.8034 29.2984V6.68406C19.8034 3.52084 17.2391 0.956543 14.0759 0.956543H6.46336Z" fill="#DBC08A"/>
<path d="M8.21777 3.30116C8.21777 3.09061 8.38846 2.91992 8.59901 2.91992H11.9404C12.151 2.91992 12.3216 3.09061 12.3216 3.30116C12.3216 3.51171 12.151 3.6824 11.9404 3.6824H8.59901C8.38846 3.6824 8.21777 3.51171 8.21777 3.30116Z" fill="#DBC08A"/>
<path fill-rule="evenodd" clip-rule="evenodd" d="M9.9503 29.775C10.446 29.775 10.8478 29.3732 10.8478 28.8775C10.8478 28.3819 10.446 27.9801 9.9503 27.9801C9.45464 27.9801 9.05283 28.3819 9.05283 28.8775C9.05283 29.3732 9.45464 29.775 9.9503 29.775ZM9.9503 30.0041C10.5725 30.0041 11.0769 29.4997 11.0769 28.8775C11.0769 28.2554 10.5725 27.751 9.9503 27.751C9.32811 27.751 8.82373 28.2554 8.82373 28.8775C8.82373 29.4997 9.32811 30.0041 9.9503 30.0041Z" fill="#DBC08A"/>
<path fill-rule="evenodd" clip-rule="evenodd" d="M10.8085 28.3139C10.7638 28.2692 10.7638 28.1966 10.8085 28.1519L13.3718 25.5887C13.4165 25.544 13.489 25.544 13.5338 25.5887C13.5785 25.6334 13.5785 25.7059 13.5338 25.7507L10.9705 28.3139C10.9258 28.3586 10.8533 28.3586 10.8085 28.3139Z" fill="#DBC08A"/>
<path fill-rule="evenodd" clip-rule="evenodd" d="M14.2609 26.7378C15.0043 27.5932 15.4776 28.6895 15.5482 29.8941C15.5518 29.9556 15.6023 30.0047 15.6639 30.0047C15.7289 30.0047 15.781 29.9504 15.7772 29.8856C15.7043 28.6212 15.206 27.4708 14.4232 26.5754L14.2609 26.7378ZM12.1276 25.0084C11.5454 24.7997 10.9179 24.686 10.264 24.686C7.32236 24.686 4.91793 26.9859 4.75068 29.8856C4.74694 29.9504 4.79902 30.0047 4.86396 30.0047C4.92559 30.0047 4.97607 29.9556 4.97968 29.8941C5.14241 27.117 7.44604 24.9151 10.264 24.9151C10.8525 24.9151 11.4186 25.0112 11.9475 25.1885L12.1276 25.0084Z" fill="#DBC08A"/>
</svg>
