<svg width="31" height="36" viewBox="0 0 31 36" fill="none" xmlns="http://www.w3.org/2000/svg">
<g filter="url(#filter0_d_142_61)">
<path d="M15.5051 0.540955L29.9907 8.90421V25.6307L15.5051 33.994L1.01953 25.6307V8.90421L15.5051 0.540955Z" fill="white"/>
</g>
<g filter="url(#filter1_i_142_61)">
<path fill-rule="evenodd" clip-rule="evenodd" d="M9.40505 10.8315L18.7053 5.04907L15.5049 3.20129L3.32324 10.2344V24.3005L15.5049 31.3336L27.6865 24.3005V13.7481L18.5989 19.3983L18.1694 18.7076L27.6865 12.7904V10.9282L16.3371 17.9847L15.9077 17.2939L27.4665 10.1073L26.1398 9.34138L14.853 16.3589L14.4235 15.6682L25.3411 8.88024L23.9809 8.09492L13.58 14.5616L13.1506 13.8709L23.1822 7.63378L21.6294 6.73729L11.3186 13.148L10.8892 12.4572L20.8307 6.27615L19.5041 5.51022L9.83451 11.5222L9.40505 10.8315Z" fill="black"/>
</g>
<defs>
<filter id="filter0_d_142_61" x="0.361418" y="0.540955" width="30.2869" height="34.7692" filterUnits="userSpaceOnUse" color-interpolation-filters="sRGB">
<feFlood flood-opacity="0" result="BackgroundImageFix"/>
<feColorMatrix in="SourceAlpha" type="matrix" values="0 0 0 0 0 0 0 0 0 0 0 0 0 0 0 0 0 0 127 0" result="hardAlpha"/>
<feOffset dy="0.658113"/>
<feGaussianBlur stdDeviation="0.329056"/>
<feComposite in2="hardAlpha" operator="out"/>
<feColorMatrix type="matrix" values="0 0 0 0 0 0 0 0 0 0 0 0 0 0 0 0 0 0 0.25 0"/>
<feBlend mode="normal" in2="BackgroundImageFix" result="effect1_dropShadow_142_61"/>
<feBlend mode="normal" in="SourceGraphic" in2="effect1_dropShadow_142_61" result="shape"/>
</filter>
<filter id="filter1_i_142_61" x="3.32324" y="3.20129" width="24.3633" height="28.7904" filterUnits="userSpaceOnUse" color-interpolation-filters="sRGB">
<feFlood flood-opacity="0" result="BackgroundImageFix"/>
<feBlend mode="normal" in="SourceGraphic" in2="BackgroundImageFix" result="shape"/>
<feColorMatrix in="SourceAlpha" type="matrix" values="0 0 0 0 0 0 0 0 0 0 0 0 0 0 0 0 0 0 127 0" result="hardAlpha"/>
<feOffset dy="0.658113"/>
<feGaussianBlur stdDeviation="0.329056"/>
<feComposite in2="hardAlpha" operator="arithmetic" k2="-1" k3="1"/>
<feColorMatrix type="matrix" values="0 0 0 0 0 0 0 0 0 0 0 0 0 0 0 0 0 0 0.25 0"/>
<feBlend mode="normal" in2="shape" result="effect1_innerShadow_142_61"/>
</filter>
</defs>
</svg>
