<svg width="31" height="20" viewBox="0 0 31 20" fill="none" xmlns="http://www.w3.org/2000/svg">
<path fill-rule="evenodd" clip-rule="evenodd" d="M0.0766602 19.3122C0.0931092 19.3127 0.109611 19.3129 0.126164 19.3129H28.5975C29.6276 19.3129 30.4626 18.4778 30.4626 17.4477C30.4626 16.4176 29.6276 15.5825 28.5975 15.5825H3.53769V16.0825H28.5975C29.3514 16.0825 29.9626 16.6937 29.9626 17.4477C29.9626 18.2017 29.3514 18.8129 28.5975 18.8129H0.126164C0.109592 18.8129 0.093089 18.8126 0.0766602 18.812V19.3122Z" fill="#DBC08A"/>
<path fill-rule="evenodd" clip-rule="evenodd" d="M26.293 15.5825C26.293 9.43646 21.3106 4.4541 15.1646 4.4541C9.0185 4.4541 4.03615 9.43646 4.03613 15.5825H3.53613C3.53615 9.16032 8.74236 3.9541 15.1646 3.9541C21.5867 3.9541 26.793 9.16032 26.793 15.5825H26.293Z" fill="#DBC08A"/>
<path fill-rule="evenodd" clip-rule="evenodd" d="M12.8321 6.60653C10.1976 7.19137 8.83183 8.82772 8.48654 9.54032C8.44138 9.63351 8.32923 9.67245 8.23604 9.62729C8.14285 9.58214 8.10391 9.46999 8.14907 9.3768C8.5429 8.56402 10.0014 6.85082 12.7509 6.24044C12.852 6.218 12.9521 6.28175 12.9746 6.38285C12.997 6.48394 12.9332 6.58408 12.8321 6.60653Z" fill="#DBC08A"/>
<path fill-rule="evenodd" clip-rule="evenodd" d="M15.2983 0.352539C15.4364 0.352539 15.5483 0.464468 15.5483 0.602539L15.5483 2.55298C15.5483 2.69105 15.4364 2.80298 15.2983 2.80298C15.1603 2.80298 15.0483 2.69105 15.0483 2.55298L15.0483 0.602539C15.0483 0.464468 15.1603 0.352539 15.2983 0.352539Z" fill="#D9C179"/>
</svg>
