<svg width="25" height="26" viewBox="0 0 25 26" fill="none" xmlns="http://www.w3.org/2000/svg">
<path fill-rule="evenodd" clip-rule="evenodd" d="M12.0326 0.774414L12.3213 0.274414L12.61 0.774414L23.9169 20.3586L24.2056 20.8586H23.6282H14.5096L14.7769 20.3628H14.2088H9.69818H9.13015L9.39741 20.8586H1.01436H0.437012L0.725687 20.3586L12.0326 0.774414ZM1.30304 20.3586L12.3213 1.27441L23.3395 20.3586H1.30304Z" fill="#DBC08A"/>
<path fill-rule="evenodd" clip-rule="evenodd" d="M8.90332 20.3594L11.5891 25.0487L11.8772 25.5517L12.1653 25.0487L14.8511 20.3594H14.2749L11.8772 24.5457L9.47952 20.3594H8.90332Z" fill="#DBC08A"/>
<path d="M11.7326 10.5569V24.5853C11.7326 24.6362 11.6654 24.6546 11.6396 24.6107L9.30724 20.6616C9.30071 20.6506 9.29869 20.6375 9.30158 20.6249L11.6339 10.5456C11.6473 10.4876 11.7326 10.4974 11.7326 10.5569Z" fill="#DBC08A"/>
<path fill-rule="evenodd" clip-rule="evenodd" d="M11.4512 10.5034C11.5149 10.2281 11.9201 10.2744 11.9201 10.557V24.5854C11.9201 24.8272 11.601 24.9143 11.4781 24.7062L9.1458 20.7571C9.11479 20.7046 9.10516 20.6422 9.11891 20.5828L9.30142 20.625L9.30146 20.625M11.5451 11.7611V24.0822L9.49665 20.6137L11.5451 11.7611ZM9.4688 20.5666C9.46876 20.5665 9.46872 20.5665 9.46869 20.5664L9.35029 20.6363L9.46869 20.5664L9.4688 20.5666ZM11.4512 10.5034L9.11891 20.5828ZM9.11891 20.5828L9.30142 20.625Z" fill="#DBC08A"/>
</svg>
